<svg id="visual" viewBox="0 0 900 300" width="900" height="300" xmlns="http://www.w3.org/2000/svg" xmlns:xlink="http://www.w3.org/1999/xlink" version="1.1"><rect x="0" y="0" width="900" height="300" fill="#FFFFFF"></rect><path d="M0 79L9.3 82C18.7 85 37.3 91 56.2 98.8C75 106.7 94 116.3 112.8 111.2C131.7 106 150.3 86 169 83.5C187.7 81 206.3 96 225 101.7C243.7 107.3 262.3 103.7 281.2 97.2C300 90.7 319 81.3 337.8 75.5C356.7 69.7 375.3 67.3 394 77.8C412.7 88.3 431.3 111.7 450 112.7C468.7 113.7 487.3 92.3 506.2 90.2C525 88 544 105 562.8 109.3C581.7 113.7 600.3 105.3 619 108C637.7 110.7 656.3 124.3 675 126C693.7 127.7 712.3 117.3 731.2 107.2C750 97 769 87 787.8 89.7C806.7 92.3 825.3 107.7 844 114.2C862.7 120.7 881.3 118.3 890.7 117.2L900 116L900 301L890.7 301C881.3 301 862.7 301 844 301C825.3 301 806.7 301 787.8 301C769 301 750 301 731.2 301C712.3 301 693.7 301 675 301C656.3 301 637.7 301 619 301C600.3 301 581.7 301 562.8 301C544 301 525 301 506.2 301C487.3 301 468.7 301 450 301C431.3 301 412.7 301 394 301C375.3 301 356.7 301 337.8 301C319 301 300 301 281.2 301C262.3 301 243.7 301 225 301C206.3 301 187.7 301 169 301C150.3 301 131.7 301 112.8 301C94 301 75 301 56.2 301C37.3 301 18.7 301 9.3 301L0 301Z" fill="#fa7268"></path><path d="M0 173L9.3 168.5C18.7 164 37.3 155 56.2 147.2C75 139.3 94 132.7 112.8 127.7C131.7 122.7 150.3 119.3 169 117.3C187.7 115.3 206.3 114.7 225 122.2C243.7 129.7 262.3 145.3 281.2 142.8C300 140.3 319 119.7 337.8 119.7C356.7 119.7 375.3 140.3 394 141.3C412.7 142.3 431.3 123.7 450 123.8C468.7 124 487.3 143 506.2 148.5C525 154 544 146 562.8 137.8C581.7 129.7 600.3 121.3 619 124.7C637.7 128 656.3 143 675 143.3C693.7 143.7 712.3 129.3 731.2 128.2C750 127 769 139 787.8 144.7C806.7 150.3 825.3 149.7 844 151.3C862.7 153 881.3 157 890.7 159L900 161L900 301L890.7 301C881.3 301 862.7 301 844 301C825.3 301 806.7 301 787.8 301C769 301 750 301 731.2 301C712.3 301 693.7 301 675 301C656.3 301 637.7 301 619 301C600.3 301 581.7 301 562.8 301C544 301 525 301 506.2 301C487.3 301 468.7 301 450 301C431.3 301 412.7 301 394 301C375.3 301 356.7 301 337.8 301C319 301 300 301 281.2 301C262.3 301 243.7 301 225 301C206.3 301 187.7 301 169 301C150.3 301 131.7 301 112.8 301C94 301 75 301 56.2 301C37.3 301 18.7 301 9.3 301L0 301Z" fill="#d1675d"></path><path d="M0 181L9.3 173.3C18.7 165.7 37.3 150.3 56.2 152.8C75 155.3 94 175.7 112.8 176.8C131.7 178 150.3 160 169 159C187.7 158 206.3 174 225 178.8C243.7 183.7 262.3 177.3 281.2 172.7C300 168 319 165 337.8 161.3C356.7 157.7 375.3 153.3 394 149.2C412.7 145 431.3 141 450 145.5C468.7 150 487.3 163 506.2 172.3C525 181.7 544 187.3 562.8 180.5C581.7 173.7 600.3 154.3 619 145.7C637.7 137 656.3 139 675 148.8C693.7 158.7 712.3 176.3 731.2 175.5C750 174.7 769 155.3 787.8 147.5C806.7 139.7 825.3 143.3 844 143C862.7 142.7 881.3 138.3 890.7 136.2L900 134L900 301L890.7 301C881.3 301 862.7 301 844 301C825.3 301 806.7 301 787.8 301C769 301 750 301 731.2 301C712.3 301 693.7 301 675 301C656.3 301 637.7 301 619 301C600.3 301 581.7 301 562.8 301C544 301 525 301 506.2 301C487.3 301 468.7 301 450 301C431.3 301 412.7 301 394 301C375.3 301 356.7 301 337.8 301C319 301 300 301 281.2 301C262.3 301 243.7 301 225 301C206.3 301 187.7 301 169 301C150.3 301 131.7 301 112.8 301C94 301 75 301 56.2 301C37.3 301 18.7 301 9.3 301L0 301Z" fill="#a95b53"></path><path d="M0 207L9.3 201.5C18.7 196 37.3 185 56.2 184.8C75 184.7 94 195.3 112.8 195.5C131.7 195.7 150.3 185.3 169 180C187.7 174.7 206.3 174.3 225 181.5C243.7 188.7 262.3 203.3 281.2 210.3C300 217.3 319 216.7 337.8 216.3C356.7 216 375.3 216 394 209.5C412.7 203 431.3 190 450 187.8C468.7 185.7 487.3 194.3 506.2 193.8C525 193.3 544 183.7 562.8 182C581.7 180.3 600.3 186.7 619 194.8C637.7 203 656.3 213 675 214.3C693.7 215.7 712.3 208.3 731.2 208C750 207.7 769 214.3 787.8 209C806.7 203.7 825.3 186.3 844 179.3C862.7 172.3 881.3 175.7 890.7 177.3L900 179L900 301L890.7 301C881.3 301 862.7 301 844 301C825.3 301 806.7 301 787.8 301C769 301 750 301 731.2 301C712.3 301 693.7 301 675 301C656.3 301 637.7 301 619 301C600.3 301 581.7 301 562.8 301C544 301 525 301 506.2 301C487.3 301 468.7 301 450 301C431.3 301 412.7 301 394 301C375.3 301 356.7 301 337.8 301C319 301 300 301 281.2 301C262.3 301 243.7 301 225 301C206.3 301 187.7 301 169 301C150.3 301 131.7 301 112.8 301C94 301 75 301 56.2 301C37.3 301 18.7 301 9.3 301L0 301Z" fill="#824f49"></path><path d="M0 214L9.3 218.3C18.7 222.7 37.3 231.3 56.2 233.2C75 235 94 230 112.8 228.7C131.7 227.3 150.3 229.7 169 231C187.7 232.3 206.3 232.7 225 232.5C243.7 232.3 262.3 231.7 281.2 228.3C300 225 319 219 337.8 215.3C356.7 211.7 375.3 210.3 394 209.5C412.7 208.7 431.3 208.3 450 212.2C468.7 216 487.3 224 506.2 223.7C525 223.3 544 214.7 562.8 212.8C581.7 211 600.3 216 619 218.5C637.7 221 656.3 221 675 219.3C693.7 217.7 712.3 214.3 731.2 214.7C750 215 769 219 787.8 220.8C806.7 222.7 825.3 222.3 844 224.5C862.7 226.7 881.3 231.3 890.7 233.7L900 236L900 301L890.7 301C881.3 301 862.7 301 844 301C825.3 301 806.7 301 787.8 301C769 301 750 301 731.2 301C712.3 301 693.7 301 675 301C656.3 301 637.7 301 619 301C600.3 301 581.7 301 562.8 301C544 301 525 301 506.2 301C487.3 301 468.7 301 450 301C431.3 301 412.7 301 394 301C375.3 301 356.7 301 337.8 301C319 301 300 301 281.2 301C262.3 301 243.7 301 225 301C206.3 301 187.7 301 169 301C150.3 301 131.7 301 112.8 301C94 301 75 301 56.2 301C37.3 301 18.7 301 9.3 301L0 301Z" fill="#5c433f"></path><path d="M0 273L9.3 272.7C18.7 272.3 37.3 271.7 56.2 271.2C75 270.7 94 270.3 112.8 266C131.7 261.7 150.3 253.3 169 249.8C187.7 246.3 206.3 247.7 225 248C243.7 248.3 262.3 247.7 281.2 250.7C300 253.7 319 260.3 337.8 261.3C356.7 262.3 375.3 257.7 394 254.7C412.7 251.7 431.3 250.3 450 253.5C468.7 256.7 487.3 264.3 506.2 265.2C525 266 544 260 562.8 254.5C581.7 249 600.3 244 619 241.7C637.7 239.3 656.3 239.7 675 242.5C693.7 245.3 712.3 250.7 731.2 250.8C750 251 769 246 787.8 248.2C806.7 250.3 825.3 259.7 844 261.7C862.7 263.7 881.3 258.3 890.7 255.7L900 253L900 301L890.7 301C881.3 301 862.7 301 844 301C825.3 301 806.7 301 787.8 301C769 301 750 301 731.2 301C712.3 301 693.7 301 675 301C656.3 301 637.7 301 619 301C600.3 301 581.7 301 562.8 301C544 301 525 301 506.2 301C487.3 301 468.7 301 450 301C431.3 301 412.7 301 394 301C375.3 301 356.7 301 337.8 301C319 301 300 301 281.2 301C262.3 301 243.7 301 225 301C206.3 301 187.7 301 169 301C150.3 301 131.7 301 112.8 301C94 301 75 301 56.2 301C37.3 301 18.7 301 9.3 301L0 301Z" fill="#363636"></path></svg>